<?xml version="1.0" standalone="no"?>
<!DOCTYPE svg PUBLIC "-//W3C//DTD SVG 20010904//EN"
 "http://www.w3.org/TR/2001/REC-SVG-20010904/DTD/svg10.dtd">
<svg version="1.0" xmlns="http://www.w3.org/2000/svg"
 width="256.000000pt" height="256.000000pt" viewBox="0 0 256.000000 256.000000"
 preserveAspectRatio="xMidYMid meet">
<metadata>
Created by potrace 1.14, written by Peter Selinger 2001-2017
</metadata>
<g transform="translate(0.000000,256.000000) scale(0.100000,-0.100000)"
fill="#000000" stroke="none">
<path d="M2305 2446 c-28 -19 -95 -76 -149 -127 -56 -53 -124 -107 -155 -123
-127 -65 -252 -145 -488 -314 -136 -98 -253 -181 -260 -185 -11 -7 -27 48 -40
138 -7 51 -28 75 -67 75 -61 -1 -77 -31 -62 -115 12 -61 16 -79 31 -132 9 -31
15 -56 13 -58 -2 -1 -102 -73 -223 -160 -121 -87 -299 -215 -395 -285 -96 -69
-206 -148 -245 -175 -126 -88 -164 -124 -176 -166 -7 -21 -9 -42 -6 -46 9 -8
146 51 202 86 22 14 90 62 150 106 101 75 716 512 741 528 6 3 31 -21 58 -60
l48 -66 -19 -26 c-29 -39 -35 -72 -16 -93 23 -25 56 -22 92 8 l31 26 63 -40
c34 -22 61 -45 60 -50 -2 -8 -140 -205 -565 -804 -63 -89 -158 -268 -158 -298
0 -22 72 -3 101 27 15 15 159 212 320 438 161 226 323 451 360 501 l67 92 69
-19 c37 -11 104 -22 149 -25 89 -7 114 5 114 50 0 36 -23 48 -118 63 -48 7
-94 15 -102 18 -8 2 -21 4 -28 4 -18 1 -12 11 161 252 225 314 236 331 320
489 26 48 68 103 118 155 123 126 179 206 179 256 0 30 -65 89 -98 89 -15 0
-50 -15 -77 -34z m-319 -516 c-47 -93 -85 -155 -196 -315 -35 -49 -96 -138
-137 -197 -40 -59 -78 -110 -83 -113 -5 -3 -32 9 -59 27 l-50 32 69 72 c39 40
70 76 71 80 0 5 2 17 4 26 2 10 -5 28 -14 39 -29 35 -74 19 -155 -56 l-69 -63
-17 21 c-10 12 -27 37 -38 56 l-21 34 41 30 c282 204 673 441 696 422 2 -2
-17 -44 -42 -95z"/>
</g>
</svg>
