<?xml version="1.0" encoding="UTF-8" standalone="no"?>
<svg
   xmlns:dc="http://purl.org/dc/elements/1.1/"
   xmlns:cc="http://creativecommons.org/ns#"
   xmlns:rdf="http://www.w3.org/1999/02/22-rdf-syntax-ns#"
   xmlns:svg="http://www.w3.org/2000/svg"
   xmlns="http://www.w3.org/2000/svg"
   xmlns:sodipodi="http://sodipodi.sourceforge.net/DTD/sodipodi-0.dtd"
   xmlns:inkscape="http://www.inkscape.org/namespaces/inkscape"
   version="1.1"
   id="svg2"
   height="1488.189"
   width="2104.7244"
   inkscape:version="0.91 r13725"
   sodipodi:docname="layout.svg">
  <sodipodi:namedview
     pagecolor="#ffffff"
     bordercolor="#666666"
     borderopacity="1"
     objecttolerance="10"
     gridtolerance="10"
     guidetolerance="10"
     inkscape:pageopacity="0"
     inkscape:pageshadow="2"
     inkscape:window-width="1920"
     inkscape:window-height="976"
     id="namedview82"
     showgrid="false"
     inkscape:zoom="0.44853766"
     inkscape:cx="1087.4437"
     inkscape:cy="673.98996"
     inkscape:window-x="-5"
     inkscape:window-y="-5"
     inkscape:window-maximized="1"
     inkscape:current-layer="layer1" />
  <defs
     id="defs4" />
  <metadata
     id="metadata7">
    <rdf:RDF>
      <cc:Work
         rdf:about="">
        <dc:format>image/svg+xml</dc:format>
        <dc:type
           rdf:resource="http://purl.org/dc/dcmitype/StillImage" />
        <dc:title />
      </cc:Work>
    </rdf:RDF>
  </metadata>
  <g
     inkscape:groupmode="layer"
     id="layer1"
     inkscape:label="Paths">
    <path
       inkscape:connector-curvature="0"
       d="m 1057.3229,721.21501 -8.9955,-1.37432 -6.2318,6.63114 -1.4727,-8.97991 -8.2323,-3.87769 8.0853,-4.17557 1.144,-9.02767 6.4697,6.39926 8.9393,-1.70171 -4.0868,8.13052 z"
       id="path4468"
       style="display:inline;fill:none;stroke:#000000;stroke-width:1.73790979;stroke-linejoin:miter;stroke-miterlimit:4;stroke-dasharray:none;stroke-opacity:1">
      <title
         id="title4470">Сириус</title>
    </path>
    <path
       inkscape:connector-curvature="0"
       style="display:inline;fill:none;stroke:#000000;stroke-width:1.73790979;stroke-linejoin:miter;stroke-miterlimit:4;stroke-dasharray:none;stroke-opacity:1"
       id="path4472"
       d="m 1135.547,855.7266 -6.7698,-6.08084 -8.8472,2.12953 3.6912,-8.31761 -4.7592,-7.75612 9.0511,0.94028 5.9059,-6.92308 1.9027,8.89873 8.4092,3.47743 -7.8752,4.55944 z" />
    <path
       inkscape:connector-curvature="0"
       d="m 1222.9854,787.77925 -3.9631,-8.19159 -8.9947,-1.37927 6.566,-6.30041 -1.4678,-8.98074 8.0211,4.29772 8.0876,-4.17112 -1.6087,8.95655 6.4662,6.40284 -9.0153,1.23774 z"
       id="path4474"
       style="display:inline;fill:none;stroke:#000000;stroke-width:1.73790991;stroke-linejoin:miter;stroke-miterlimit:4;stroke-dasharray:none;stroke-opacity:1">
      <title
         id="title4476">Зи-Ифлан</title>
    </path>
    <path
       inkscape:connector-curvature="0"
       d="m 1283.2942,911.54106 -6.7698,-6.08085 -8.8472,2.12953 3.6912,-8.31761 -4.7592,-7.75612 9.0511,0.94028 5.9058,-6.92308 1.9028,8.89874 8.4092,3.47742 -7.8752,4.55944 z"
       id="path4478"
       style="display:inline;fill:none;stroke:#000000;stroke-width:1.73790979;stroke-linejoin:miter;stroke-miterlimit:4;stroke-dasharray:none;stroke-opacity:1" />
    <path
       inkscape:connector-curvature="0"
       style="display:inline;fill:none;stroke:#000000;stroke-width:1.73790979;stroke-linejoin:miter;stroke-miterlimit:4;stroke-dasharray:none;stroke-opacity:1"
       id="path4480"
       d="m 1577.5111,804.51249 -6.7698,-6.08084 -8.8472,2.12953 3.6912,-8.31761 -4.7592,-7.75612 9.0511,0.94027 5.9059,-6.92307 1.9027,8.89873 8.4092,3.47743 -7.8752,4.55944 z" />
    <path
       inkscape:connector-curvature="0"
       d="m 1477.6217,951.0034 -6.7698,-6.08085 -8.8472,2.12953 3.6912,-8.31761 -4.7592,-7.75612 9.0511,0.94028 5.9059,-6.92308 1.9027,8.89874 8.4092,3.47742 -7.8752,4.55944 z"
       id="path4482"
       style="display:inline;fill:none;stroke:#000000;stroke-width:1.73790979;stroke-linejoin:miter;stroke-miterlimit:4;stroke-dasharray:none;stroke-opacity:1" />
    <path
       inkscape:connector-curvature="0"
       style="display:inline;fill:none;stroke:#000000;stroke-width:1.73790979;stroke-linejoin:miter;stroke-miterlimit:4;stroke-dasharray:none;stroke-opacity:1"
       id="path4484"
       d="m 1414.6454,1056.2642 -6.7698,-6.0808 -8.8472,2.1295 3.6912,-8.3176 -4.7593,-7.7561 9.0512,0.9403 5.9058,-6.9231 1.9027,8.8987 8.4093,3.4775 -7.8752,4.5594 z" />
    <path
       inkscape:connector-curvature="0"
       d="m 1251.4374,1246.7919 -6.7699,-6.0809 -8.8471,2.1296 3.6912,-8.3176 -4.7593,-7.7562 9.0512,0.9403 5.9058,-6.9231 1.9027,8.8988 8.4093,3.4774 -7.8753,4.5594 z"
       id="path4486"
       style="display:inline;fill:none;stroke:#000000;stroke-width:1.73790979;stroke-linejoin:miter;stroke-miterlimit:4;stroke-dasharray:none;stroke-opacity:1" />
    <path
       inkscape:connector-curvature="0"
       style="display:inline;fill:none;stroke:#000000;stroke-width:1.73790979;stroke-linejoin:miter;stroke-miterlimit:4;stroke-dasharray:none;stroke-opacity:1"
       id="path4488"
       d="m 1557.5003,1045.3139 -6.7699,-6.0809 -8.8472,2.1295 3.6912,-8.3176 -4.7592,-7.7561 9.0512,0.9403 5.9058,-6.9231 1.9027,8.8987 8.4092,3.4775 -7.8752,4.5594 z" />
    <path
       inkscape:connector-curvature="0"
       d="m 1666.5514,956.40138 -6.7698,-6.08085 -8.8472,2.12953 3.6912,-8.31761 -4.7592,-7.75612 9.0511,0.94028 5.9058,-6.92308 1.9028,8.89874 8.4092,3.47742 -7.8752,4.55944 z"
       id="path4490"
       style="display:inline;fill:none;stroke:#000000;stroke-width:1.73790979;stroke-linejoin:miter;stroke-miterlimit:4;stroke-dasharray:none;stroke-opacity:1" />
    <path
       inkscape:connector-curvature="0"
       style="display:inline;fill:none;stroke:#000000;stroke-width:1.73790979;stroke-linejoin:miter;stroke-miterlimit:4;stroke-dasharray:none;stroke-opacity:1"
       id="path4492"
       d="m 1810.6941,885.9499 -6.7698,-6.08084 -8.8472,2.12953 3.6912,-8.31761 -4.7592,-7.75613 9.0511,0.94028 5.9058,-6.92307 1.9028,8.89873 8.4092,3.47743 -7.8752,4.55944 z" />
    <path
       inkscape:connector-curvature="0"
       d="m 1926.7461,1061.885 -6.7698,-6.0808 -8.8472,2.1295 3.6912,-8.3176 -4.7592,-7.7561 9.0511,0.9403 5.9058,-6.9231 1.9028,8.8987 8.4092,3.4774 -7.8752,4.5595 z"
       id="path4494"
       style="display:inline;fill:none;stroke:#000000;stroke-width:1.73790979;stroke-linejoin:miter;stroke-miterlimit:4;stroke-dasharray:none;stroke-opacity:1" />
    <path
       inkscape:connector-curvature="0"
       style="display:inline;fill:none;stroke:#000000;stroke-width:1.73790979;stroke-linejoin:miter;stroke-miterlimit:4;stroke-dasharray:none;stroke-opacity:1"
       id="path4496"
       d="m 1869.7852,1275.8618 -6.7699,-6.0808 -8.8472,2.1295 3.6913,-8.3176 -4.7593,-7.7561 9.0512,0.9403 5.9058,-6.9231 1.9027,8.8987 8.4093,3.4774 -7.8753,4.5595 z" />
    <path
       inkscape:connector-curvature="0"
       d="m 1362.0166,1406.2338 -6.7698,-6.0809 -8.8472,2.1296 3.6912,-8.3176 -4.7592,-7.7562 9.0511,0.9403 5.9059,-6.9231 1.9027,8.8988 8.4092,3.4774 -7.8752,4.5594 z"
       id="path4498"
       style="display:inline;fill:none;stroke:#000000;stroke-width:1.73790979;stroke-linejoin:miter;stroke-miterlimit:4;stroke-dasharray:none;stroke-opacity:1" />
    <path
       inkscape:connector-curvature="0"
       style="display:inline;fill:none;stroke:#000000;stroke-width:1.73790979;stroke-linejoin:miter;stroke-miterlimit:4;stroke-dasharray:none;stroke-opacity:1"
       id="path4500"
       d="m 1585.5817,1444.0196 -6.7699,-6.0809 -8.8472,2.1296 3.6913,-8.3176 -4.7593,-7.7561 9.0512,0.9402 5.9058,-6.923 1.9027,8.8987 8.4093,3.4774 -7.8753,4.5595 z" />
    <path
       inkscape:connector-curvature="0"
       d="m 1452.6358,1233.2914 -6.7699,-6.0808 -8.8472,2.1295 3.6912,-8.3176 -4.7592,-7.7561 9.0512,0.9402 5.9058,-6.923 1.9027,8.8987 8.4092,3.4774 -7.8752,4.5595 z"
       id="path4502"
       style="display:inline;fill:none;stroke:#000000;stroke-width:1.73790979;stroke-linejoin:miter;stroke-miterlimit:4;stroke-dasharray:none;stroke-opacity:1" />
    <path
       inkscape:connector-curvature="0"
       style="display:inline;fill:none;stroke:#000000;stroke-width:1.73790979;stroke-linejoin:miter;stroke-miterlimit:4;stroke-dasharray:none;stroke-opacity:1"
       id="path4504"
       d="m 1535.6918,1165.9835 -6.7699,-6.0809 -8.8472,2.1296 3.6913,-8.3177 -4.7593,-7.7561 9.0512,0.9403 5.9058,-6.9231 1.9027,8.8988 8.4093,3.4774 -7.8753,4.5594 z" />
    <path
       inkscape:connector-curvature="0"
       d="m 1669.8413,1160.0294 -6.7698,-6.0809 -8.8472,2.1296 3.6912,-8.3177 -4.7592,-7.7561 9.0511,0.9403 5.9059,-6.9231 1.9027,8.8988 8.4092,3.4774 -7.8752,4.5594 z"
       id="path4506"
       style="display:inline;fill:none;stroke:#000000;stroke-width:1.73790979;stroke-linejoin:miter;stroke-miterlimit:4;stroke-dasharray:none;stroke-opacity:1" />
    <path
       inkscape:connector-curvature="0"
       style="display:inline;fill:none;stroke:#000000;stroke-width:1.73790979;stroke-linejoin:miter;stroke-miterlimit:4;stroke-dasharray:none;stroke-opacity:1"
       id="path4508"
       d="m 1734.6546,1255.9788 -6.7699,-6.0809 -8.8472,2.1296 3.6912,-8.3176 -4.7592,-7.7562 9.0512,0.9403 5.9058,-6.9231 1.9027,8.8988 8.4092,3.4774 -7.8752,4.5594 z" />
    <path
       inkscape:connector-curvature="0"
       d="m 1778.1474,1405.0518 -6.7699,-6.0808 -8.8472,2.1295 3.6912,-8.3176 -4.7592,-7.7561 9.0512,0.9403 5.9058,-6.9231 1.9027,8.8987 8.4092,3.4774 -7.8752,4.5595 z"
       id="path4510"
       style="display:inline;fill:none;stroke:#000000;stroke-width:1.73790979;stroke-linejoin:miter;stroke-miterlimit:4;stroke-dasharray:none;stroke-opacity:1" />
    <path
       inkscape:connector-curvature="0"
       style="display:inline;fill:none;stroke:#000000;stroke-width:1.73790991;stroke-linejoin:miter;stroke-miterlimit:4;stroke-dasharray:none;stroke-opacity:1"
       id="path4512"
       d="m 1207.7989,631.78385 -8.0668,-4.21128 -8.0423,4.25777 1.5124,-8.9733 -6.5346,-6.33301 9.0015,-1.33453 4.0037,-8.17176 4.0509,8.14852 9.009,1.28257 -6.4979,6.37059 z" />
    <path
       inkscape:connector-curvature="0"
       d="m 1044.2682,540.25556 -2.6805,-8.69613 -8.6832,-2.72186 7.4422,-5.23654 -0.095,-9.09939 7.2801,5.45978 8.6247,-2.90187 -2.9429,8.61086 5.4251,7.30593 -9.0989,-0.13795 z"
       id="path4572"
       style="display:inline;fill:none;stroke:#000000;stroke-width:1.73790979;stroke-linejoin:miter;stroke-miterlimit:4;stroke-dasharray:none;stroke-opacity:1" />
    <path
       inkscape:connector-curvature="0"
       style="display:inline;fill:none;stroke:#000000;stroke-width:1.73790991;stroke-linejoin:miter;stroke-miterlimit:4;stroke-dasharray:none;stroke-opacity:1"
       id="path4574"
       d="m 1319.7978,489.90508 -6.6763,-6.18344 -8.8786,1.99429 3.8177,-8.26031 -4.6403,-7.82785 9.0357,1.07828 6.0108,-6.83215 1.7667,8.92672 8.3552,3.60534 -7.9439,4.43875 z" />
    <path
       inkscape:connector-curvature="0"
       d="m 1490.1501,573.50566 -3.8278,-8.25565 -8.9708,-1.52702 6.6687,-6.19157 -1.3199,-9.00366 7.9493,4.42905 8.1552,-4.03754 -1.7558,8.92887 6.3599,6.50832 -9.0344,1.08931 z"
       id="path4576"
       style="display:inline;fill:none;stroke:#000000;stroke-width:1.73790979;stroke-linejoin:miter;stroke-miterlimit:4;stroke-dasharray:none;stroke-opacity:1" />
    <path
       inkscape:connector-curvature="0"
       style="display:inline;fill:none;stroke:#000000;stroke-width:1.73790979;stroke-linejoin:miter;stroke-miterlimit:4;stroke-dasharray:none;stroke-opacity:1"
       id="path4578"
       d="m 1720.7726,550.90017 -6.7698,-6.08085 -8.8472,2.12953 3.6912,-8.31761 -4.7593,-7.75612 9.0512,0.94028 5.9058,-6.92308 1.9027,8.89873 8.4093,3.47743 -7.8752,4.55944 z" />
    <path
       inkscape:connector-curvature="0"
       d="m 1829.0763,301.52583 -6.7698,-6.08085 -8.8472,2.12953 3.6912,-8.31761 -4.7592,-7.75612 9.0511,0.94028 5.9058,-6.92308 1.9028,8.89874 8.4092,3.47742 -7.8752,4.55945 z"
       id="path4580"
       style="display:inline;fill:none;stroke:#000000;stroke-width:1.73790979;stroke-linejoin:miter;stroke-miterlimit:4;stroke-dasharray:none;stroke-opacity:1" />
    <path
       inkscape:connector-curvature="0"
       style="display:inline;fill:none;stroke:#000000;stroke-width:1.73790979;stroke-linejoin:miter;stroke-miterlimit:4;stroke-dasharray:none;stroke-opacity:1"
       id="path4582"
       d="m 1396.3317,131.0352 -6.7699,-6.08085 -8.8472,2.12953 3.6913,-8.31761 -4.7593,-7.75612 9.0512,0.94028 5.9058,-6.92308 1.9027,8.89874 8.4093,3.47742 -7.8753,4.55944 z" />
    <path
       inkscape:connector-curvature="0"
       d="m 1508.2957,83.95948 -6.7699,-6.08084 -8.8472,2.12953 3.6913,-8.31761 -4.7593,-7.75612 9.0512,0.94027 5.9058,-6.92307 1.9027,8.89873 8.4093,3.47743 -7.8753,4.55944 z"
       id="path4584"
       style="display:inline;fill:none;stroke:#000000;stroke-width:1.73790979;stroke-linejoin:miter;stroke-miterlimit:4;stroke-dasharray:none;stroke-opacity:1" />
    <path
       inkscape:connector-curvature="0"
       style="display:inline;fill:none;stroke:#000000;stroke-width:1.73790979;stroke-linejoin:miter;stroke-miterlimit:4;stroke-dasharray:none;stroke-opacity:1"
       id="path4586"
       d="m 1484.1215,249.36079 -6.7699,-6.08085 -8.8472,2.12954 3.6913,-8.31762 -4.7593,-7.75612 9.0512,0.94028 5.9058,-6.92308 1.9027,8.89874 8.4093,3.47742 -7.8753,4.55945 z" />
    <path
       inkscape:connector-curvature="0"
       d="m 1727.1342,90.32103 -6.7699,-6.08085 -8.8472,2.12953 3.6913,-8.31761 -4.7593,-7.75612 9.0512,0.94028 5.9058,-6.92308 1.9027,8.89873 8.4093,3.47743 -7.8753,4.55944 z"
       id="path4588"
       style="display:inline;fill:none;stroke:#000000;stroke-width:1.73790979;stroke-linejoin:miter;stroke-miterlimit:4;stroke-dasharray:none;stroke-opacity:1" />
    <path
       inkscape:connector-curvature="0"
       style="display:inline;fill:none;stroke:#000000;stroke-width:1.73790979;stroke-linejoin:miter;stroke-miterlimit:4;stroke-dasharray:none;stroke-opacity:1"
       id="path4590"
       d="m 1691.5093,251.90539 -6.7699,-6.08084 -8.8471,2.12953 3.6912,-8.31761 -4.7593,-7.75613 9.0512,0.94028 5.9058,-6.92307 1.9027,8.89873 8.4093,3.47743 -7.8753,4.55944 z" />
    <path
       inkscape:connector-curvature="0"
       d="m 1130.417,376.59259 -6.7698,-6.08084 -8.8472,2.12953 3.6912,-8.31761 -4.7592,-7.75612 9.0511,0.94028 5.9058,-6.92308 1.9028,8.89873 8.4092,3.47743 -7.8752,4.55944 z"
       id="path4592"
       style="display:inline;fill:none;stroke:#000000;stroke-width:1.73790979;stroke-linejoin:miter;stroke-miterlimit:4;stroke-dasharray:none;stroke-opacity:1" />
    <path
       inkscape:connector-curvature="0"
       style="display:inline;fill:none;stroke:#000000;stroke-width:1.73790979;stroke-linejoin:miter;stroke-miterlimit:4;stroke-dasharray:none;stroke-opacity:1"
       id="path4594"
       d="m 1485.3099,369.99506 4.6946,-7.79538 -3.7601,-8.28667 8.8645,2.056 6.7192,-6.13684 0.7839,9.06605 7.9128,4.49389 -8.38,3.54713 -1.8288,8.91422 -5.9631,-6.87379 z" />
    <path
       inkscape:connector-curvature="0"
       d="m 1682.6029,483.46727 -6.7698,-6.08084 -8.8472,2.12953 3.6912,-8.31762 -4.7592,-7.75612 9.0511,0.94028 5.9059,-6.92308 1.9027,8.89874 8.4092,3.47742 -7.8752,4.55945 z"
       id="path4596"
       style="display:inline;fill:none;stroke:#000000;stroke-width:1.73790979;stroke-linejoin:miter;stroke-miterlimit:4;stroke-dasharray:none;stroke-opacity:1" />
    <path
       inkscape:connector-curvature="0"
       style="display:inline;fill:none;stroke:#000000;stroke-width:1.73790979;stroke-linejoin:miter;stroke-miterlimit:4;stroke-dasharray:none;stroke-opacity:1"
       id="path4636"
       d="m 947.20329,805.36369 -6.76987,-6.08085 -8.8472,2.12953 3.69123,-8.31761 -4.75924,-7.75612 9.05117,0.94028 5.90582,-6.92308 1.90271,8.89874 8.40924,3.47742 -7.87523,4.55945 z" />
    <path
       inkscape:connector-curvature="0"
       d="m 996.82383,968.22041 -6.76987,-6.08085 -8.84719,2.12953 3.69122,-8.31761 -4.75924,-7.75612 9.05117,0.94028 5.90583,-6.92308 1.9027,8.89874 8.40925,3.47742 -7.87524,4.55945 z"
       id="path4638"
       style="display:inline;fill:none;stroke:#000000;stroke-width:1.73790979;stroke-linejoin:miter;stroke-miterlimit:4;stroke-dasharray:none;stroke-opacity:1" />
    <path
       inkscape:connector-curvature="0"
       style="display:inline;fill:none;stroke:#000000;stroke-width:1.73790979;stroke-linejoin:miter;stroke-miterlimit:4;stroke-dasharray:none;stroke-opacity:1"
       id="path4640"
       d="m 758.90031,793.91291 -6.76987,-6.08084 -8.8472,2.12953 3.69123,-8.31761 -4.75924,-7.75612 9.05117,0.94027 5.90582,-6.92307 1.90271,8.89873 8.40924,3.47743 -7.87523,4.55944 z" />
    <path
       inkscape:connector-curvature="0"
       d="m 542.60624,902.05986 -6.76987,-6.08085 -8.84719,2.12953 3.69122,-8.31761 -4.75924,-7.75612 9.05117,0.94028 5.90583,-6.92308 1.9027,8.89874 8.40924,3.47742 -7.87523,4.55944 z"
       id="path4642"
       style="display:inline;fill:none;stroke:#000000;stroke-width:1.73790979;stroke-linejoin:miter;stroke-miterlimit:4;stroke-dasharray:none;stroke-opacity:1" />
    <path
       inkscape:connector-curvature="0"
       style="display:inline;fill:none;stroke:#000000;stroke-width:1.73790979;stroke-linejoin:miter;stroke-miterlimit:4;stroke-dasharray:none;stroke-opacity:1"
       id="path4644"
       d="m 621.5084,979.45381 -6.76987,-6.08085 -8.84719,2.12953 3.69122,-8.31761 -4.75924,-7.75612 9.05117,0.94028 5.90583,-6.92308 1.9027,8.89874 8.40924,3.47742 -7.87523,4.55944 z" />
    <path
       inkscape:connector-curvature="0"
       d="m 458.13596,1029.7716 -6.76986,-6.0808 -8.8472,2.1295 3.69122,-8.3176 -4.75923,-7.7561 9.05117,0.9403 5.90582,-6.9231 1.90271,8.8987 8.40924,3.4774 -7.87524,4.5595 z"
       id="path4646"
       style="display:inline;fill:none;stroke:#000000;stroke-width:1.73790979;stroke-linejoin:miter;stroke-miterlimit:4;stroke-dasharray:none;stroke-opacity:1" />
    <path
       inkscape:connector-curvature="0"
       style="display:inline;fill:none;stroke:#000000;stroke-width:1.73790979;stroke-linejoin:miter;stroke-miterlimit:4;stroke-dasharray:none;stroke-opacity:1"
       id="path4648"
       d="m 514.29597,1100.6618 -6.76987,-6.0809 -8.8472,2.1295 3.69123,-8.3176 -4.75924,-7.7561 9.05117,0.9403 5.90582,-6.9231 1.90271,8.8987 8.40924,3.4775 -7.87523,4.5594 z" />
    <path
       inkscape:connector-curvature="0"
       d="m 440.20606,1256.6458 -6.76986,-6.0808 -8.8472,2.1295 3.69122,-8.3176 -4.75923,-7.7561 9.05116,0.9403 5.90583,-6.9231 1.90271,8.8987 8.40923,3.4774 -7.87523,4.5595 z"
       id="path4650"
       style="display:inline;fill:none;stroke:#000000;stroke-width:1.73790979;stroke-linejoin:miter;stroke-miterlimit:4;stroke-dasharray:none;stroke-opacity:1" />
    <path
       inkscape:connector-curvature="0"
       style="display:inline;fill:none;stroke:#000000;stroke-width:1.73790979;stroke-linejoin:miter;stroke-miterlimit:4;stroke-dasharray:none;stroke-opacity:1"
       id="path4652"
       d="m 600.6331,1130.0639 -6.76987,-6.0808 -8.8472,2.1295 3.69123,-8.3176 -4.75924,-7.7561 9.05117,0.9403 5.90582,-6.9231 1.90271,8.8987 8.40924,3.4774 -7.87523,4.5595 z" />
    <path
       inkscape:connector-curvature="0"
       d="m 618.94529,1309.2016 -6.76987,-6.0808 -8.84719,2.1295 3.69122,-8.3176 -4.75924,-7.7561 9.05117,0.9402 5.90583,-6.923 1.9027,8.8987 8.40924,3.4774 -7.87523,4.5595 z"
       id="path4654"
       style="display:inline;fill:none;stroke:#000000;stroke-width:1.73790979;stroke-linejoin:miter;stroke-miterlimit:4;stroke-dasharray:none;stroke-opacity:1" />
    <path
       inkscape:connector-curvature="0"
       style="display:inline;fill:none;stroke:#000000;stroke-width:1.73790979;stroke-linejoin:miter;stroke-miterlimit:4;stroke-dasharray:none;stroke-opacity:1"
       id="path4656"
       d="m 811.06541,1236.6795 -6.76987,-6.0809 -8.8472,2.1295 3.69123,-8.3176 -4.75924,-7.7561 9.05117,0.9403 5.90582,-6.9231 1.90271,8.8987 8.40924,3.4775 -7.87523,4.5594 z" />
    <path
       inkscape:connector-curvature="0"
       d="m 943.38645,1127.2601 -6.76986,-6.0808 -8.8472,2.1295 3.69122,-8.3176 -4.75923,-7.7561 9.05116,0.9403 5.90583,-6.9231 1.90271,8.8987 8.40923,3.4775 -7.87523,4.5594 z"
       id="path4658"
       style="display:inline;fill:none;stroke:#000000;stroke-width:1.73790979;stroke-linejoin:miter;stroke-miterlimit:4;stroke-dasharray:none;stroke-opacity:1" />
    <path
       inkscape:connector-curvature="0"
       style="display:inline;fill:none;stroke:#000000;stroke-width:1.73790979;stroke-linejoin:miter;stroke-miterlimit:4;stroke-dasharray:none;stroke-opacity:1"
       id="path4660"
       d="m 818.6992,1080.1843 -6.76987,-6.0808 -8.8472,2.1295 3.69123,-8.3176 -4.75924,-7.7561 9.05117,0.9403 5.90582,-6.9231 1.90271,8.8987 8.40924,3.4775 -7.87523,4.5594 z" />
    <path
       inkscape:connector-curvature="0"
       d="m 1162.9465,1278.9064 -6.7699,-6.0809 -8.8472,2.1296 3.6912,-8.3176 -4.7592,-7.7562 9.0511,0.9403 5.9059,-6.9231 1.9027,8.8988 8.4092,3.4774 -7.8752,4.5594 z"
       id="path4662"
       style="display:inline;fill:none;stroke:#000000;stroke-width:1.73790979;stroke-linejoin:miter;stroke-miterlimit:4;stroke-dasharray:none;stroke-opacity:1" />
    <path
       inkscape:connector-curvature="0"
       style="display:inline;fill:none;stroke:#000000;stroke-width:1.73790979;stroke-linejoin:miter;stroke-miterlimit:4;stroke-dasharray:none;stroke-opacity:1"
       id="path4664"
       d="m 769.07884,1366.4559 -6.76987,-6.0809 -8.8472,2.1296 3.69123,-8.3176 -4.75924,-7.7562 9.05117,0.9403 5.90582,-6.9231 1.90271,8.8988 8.40924,3.4774 -7.87523,4.5594 z" />
    <path
       inkscape:connector-curvature="0"
       d="m 722.00309,1134.894 -6.76987,-6.0808 -8.84719,2.1295 3.69122,-8.3176 -4.75924,-7.7561 9.05117,0.9402 5.90583,-6.923 1.9027,8.8987 8.40924,3.4774 -7.87523,4.5595 z"
       id="path4685"
       style="display:inline;fill:none;stroke:#000000;stroke-width:1.73790979;stroke-linejoin:miter;stroke-miterlimit:4;stroke-dasharray:none;stroke-opacity:1" />
    <path
       inkscape:connector-curvature="0"
       d="m 930.63957,636.12742 -6.76987,-6.08084 -8.8472,2.12953 3.69123,-8.31761 -4.75924,-7.75613 9.05117,0.94028 5.90582,-6.92307 1.90271,8.89873 8.40924,3.47743 -7.87523,4.55944 z"
       id="path4701"
       style="display:inline;fill:none;stroke:#000000;stroke-width:1.73790979;stroke-linejoin:miter;stroke-miterlimit:4;stroke-dasharray:none;stroke-opacity:1" />
    <path
       inkscape:connector-curvature="0"
       style="display:inline;fill:none;stroke:#000000;stroke-width:1.73790979;stroke-linejoin:miter;stroke-miterlimit:4;stroke-dasharray:none;stroke-opacity:1"
       id="path4703"
       d="m 786.80796,551.386 -6.76987,-6.08085 -8.84719,2.12953 3.69122,-8.31761 -4.75924,-7.75612 9.05117,0.94028 5.90583,-6.92308 1.9027,8.89874 8.40924,3.47742 -7.87523,4.55944 z" />
    <path
       inkscape:connector-curvature="0"
       d="m 855.50364,459.02125 -6.76987,-6.08084 -8.84719,2.12953 3.69122,-8.31761 -4.75924,-7.75612 9.05117,0.94027 5.90583,-6.92307 1.9027,8.89873 8.40924,3.47743 -7.87523,4.55944 z"
       id="path4705"
       style="display:inline;fill:none;stroke:#000000;stroke-width:1.73790979;stroke-linejoin:miter;stroke-miterlimit:4;stroke-dasharray:none;stroke-opacity:1" />
    <path
       inkscape:connector-curvature="0"
       style="display:inline;fill:none;stroke:#000000;stroke-width:1.73790979;stroke-linejoin:miter;stroke-miterlimit:4;stroke-dasharray:none;stroke-opacity:1"
       id="path4707"
       d="m 567.49351,570.51538 -6.76987,-6.08085 -8.84719,2.12953 3.69122,-8.31761 -4.75924,-7.75612 9.05117,0.94028 5.90582,-6.92308 1.90271,8.89874 8.40924,3.47742 -7.87523,4.55944 z" />
    <path
       inkscape:connector-curvature="0"
       d="m 474.38728,673.1972 -6.76987,-6.08084 -8.8472,2.12953 3.69123,-8.31762 -4.75924,-7.75612 9.05117,0.94028 5.90582,-6.92308 1.90271,8.89874 8.40924,3.47742 -7.87523,4.55945 z"
       id="path4709"
       style="display:inline;fill:none;stroke:#000000;stroke-width:1.73790979;stroke-linejoin:miter;stroke-miterlimit:4;stroke-dasharray:none;stroke-opacity:1" />
    <path
       inkscape:connector-curvature="0"
       style="display:inline;fill:none;stroke:#000000;stroke-width:1.73790979;stroke-linejoin:miter;stroke-miterlimit:4;stroke-dasharray:none;stroke-opacity:1"
       id="path4711"
       d="m 586.08769,482.6354 -6.76987,-6.08085 -8.8472,2.12953 3.69123,-8.31761 -4.75924,-7.75612 9.05117,0.94028 5.90582,-6.92308 1.90271,8.89874 8.40924,3.47742 -7.87523,4.55944 z" />
    <path
       inkscape:connector-curvature="0"
       d="m 562.47349,395.69241 -6.76987,-6.08085 -8.84719,2.12953 3.69122,-8.31761 -4.75924,-7.75612 9.05117,0.94028 5.90583,-6.92308 1.9027,8.89874 8.40924,3.47742 -7.87523,4.55944 z"
       id="path4713"
       style="display:inline;fill:none;stroke:#000000;stroke-width:1.73790979;stroke-linejoin:miter;stroke-miterlimit:4;stroke-dasharray:none;stroke-opacity:1" />
    <path
       inkscape:connector-curvature="0"
       style="display:inline;fill:none;stroke:#000000;stroke-width:1.73790979;stroke-linejoin:miter;stroke-miterlimit:4;stroke-dasharray:none;stroke-opacity:1"
       id="path4715"
       d="m 484.11744,445.06745 -6.76987,-6.08084 -8.84719,2.12953 3.69122,-8.31761 -4.75924,-7.75613 9.05117,0.94028 5.90583,-6.92307 1.9027,8.89873 8.40924,3.47743 -7.87523,4.55944 z" />
    <path
       inkscape:connector-curvature="0"
       d="m 719.18559,430.0403 -6.76987,-6.08085 -8.8472,2.12953 3.69123,-8.31761 -4.75924,-7.75612 9.05117,0.94028 5.90582,-6.92308 1.90271,8.89874 8.40924,3.47742 -7.87523,4.55944 z"
       id="path4717"
       style="display:inline;fill:none;stroke:#000000;stroke-width:1.73790979;stroke-linejoin:miter;stroke-miterlimit:4;stroke-dasharray:none;stroke-opacity:1" />
    <path
       inkscape:connector-curvature="0"
       style="display:inline;fill:none;stroke:#000000;stroke-width:1.73790979;stroke-linejoin:miter;stroke-miterlimit:4;stroke-dasharray:none;stroke-opacity:1"
       id="path4719"
       d="m 780.36771,336.65705 -6.76986,-6.08085 -8.8472,2.12953 3.69122,-8.31761 -4.75923,-7.75612 9.05117,0.94028 5.90582,-6.92308 1.90271,8.89874 8.40924,3.47742 -7.87524,4.55944 z" />
    <path
       inkscape:connector-curvature="0"
       d="m 289.94706,606.62934 -6.76987,-6.08084 -8.84719,2.12953 3.69122,-8.31761 -4.75924,-7.75612 9.05117,0.94028 5.90583,-6.92308 1.9027,8.89873 8.40924,3.47743 -7.87523,4.55944 z"
       id="path4721"
       style="display:inline;fill:none;stroke:#000000;stroke-width:1.73790979;stroke-linejoin:miter;stroke-miterlimit:4;stroke-dasharray:none;stroke-opacity:1" />
    <path
       inkscape:connector-curvature="0"
       style="display:inline;fill:none;stroke:#000000;stroke-width:1.73790979;stroke-linejoin:miter;stroke-miterlimit:4;stroke-dasharray:none;stroke-opacity:1"
       id="path4723"
       d="m 181.53407,453.27574 -6.76987,-6.08085 -8.8472,2.12953 3.69123,-8.31761 -4.75924,-7.75612 9.05117,0.94028 5.90582,-6.92308 1.90271,8.89874 8.40924,3.47742 -7.87523,4.55944 z" />
    <path
       inkscape:connector-curvature="0"
       style="display:inline;fill:none;stroke:#000000;stroke-width:1.73790979;stroke-linejoin:miter;stroke-miterlimit:4;stroke-dasharray:none;stroke-opacity:1"
       id="path4725"
       d="m 391.32749,459.23188 -6.76986,-6.08084 -8.8472,2.12953 3.69122,-8.31761 -4.75923,-7.75612 9.05116,0.94028 5.90583,-6.92308 1.90271,8.89873 8.40923,3.47743 -7.87523,4.55944 z" />
    <path
       inkscape:connector-curvature="0"
       d="m 326.7194,253.40638 -6.76987,-6.08084 -8.84719,2.12953 3.69122,-8.31761 -4.75924,-7.75612 9.05117,0.94027 5.90583,-6.92307 1.9027,8.89873 8.40924,3.47743 -7.87523,4.55944 z"
       id="path4751"
       style="display:inline;fill:none;stroke:#000000;stroke-width:1.73790979;stroke-linejoin:miter;stroke-miterlimit:4;stroke-dasharray:none;stroke-opacity:1" />
    <path
       inkscape:connector-curvature="0"
       style="display:inline;fill:none;stroke:#000000;stroke-width:1.73790979;stroke-linejoin:miter;stroke-miterlimit:4;stroke-dasharray:none;stroke-opacity:1"
       id="path4753"
       d="m 246.06925,295.0178 -6.76986,-6.08084 -8.8472,2.12953 3.69122,-8.31761 -4.75923,-7.75612 9.05116,0.94027 5.90583,-6.92307 1.90271,8.89873 8.40923,3.47743 -7.87523,4.55944 z" />
    <path
       inkscape:connector-curvature="0"
       d="m 263.72416,382.57183 -6.76987,-6.08084 -8.84719,2.12953 3.69122,-8.31761 -4.75924,-7.75612 9.05117,0.94028 5.90583,-6.92308 1.9027,8.89873 8.40924,3.47743 -7.87523,4.55944 z"
       id="path4755"
       style="display:inline;fill:none;stroke:#000000;stroke-width:1.73790979;stroke-linejoin:miter;stroke-miterlimit:4;stroke-dasharray:none;stroke-opacity:1" />
    <path
       inkscape:connector-curvature="0"
       style="display:inline;fill:none;stroke:#000000;stroke-width:1.73790979;stroke-linejoin:miter;stroke-miterlimit:4;stroke-dasharray:none;stroke-opacity:1"
       id="path4757"
       d="m 390.05247,321.12698 -6.76987,-6.08085 -8.84719,2.12953 3.69122,-8.31761 -4.75924,-7.75612 9.05117,0.94028 5.90582,-6.92308 1.90271,8.89874 8.40924,3.47742 -7.87523,4.55945 z" />
    <path
       inkscape:connector-curvature="0"
       d="m 341.47413,396.77718 -6.76987,-6.08085 -8.84719,2.12953 3.69122,-8.31761 -4.75924,-7.75612 9.05117,0.94028 5.90583,-6.92308 1.9027,8.89874 8.40924,3.47742 -7.87523,4.55944 z"
       id="path4759"
       style="display:inline;fill:none;stroke:#000000;stroke-width:1.73790979;stroke-linejoin:miter;stroke-miterlimit:4;stroke-dasharray:none;stroke-opacity:1" />
    <path
       inkscape:connector-curvature="0"
       style="display:inline;fill:none;stroke:#000000;stroke-width:1.73790991;stroke-linejoin:miter;stroke-miterlimit:4;stroke-dasharray:none;stroke-opacity:1"
       id="path4761"
       d="m 297.3103,320.95721 5.11395,-7.52697 -3.30135,-8.47991 8.73886,2.5377 7.04472,-5.7602 0.28695,9.09536 7.65521,4.9199 -8.56151,3.08354 -2.31353,8.80086 -5.57826,-7.18961 z" />
    <path
       inkscape:connector-curvature="0"
       style="display:inline;fill:none;stroke:#000000;stroke-width:1.73790979;stroke-linejoin:miter;stroke-miterlimit:4;stroke-dasharray:none;stroke-opacity:1"
       id="path4773"
       d="m 658.64842,686.96666 -6.76987,-6.08085 -8.8472,2.12953 3.69123,-8.31761 -4.75924,-7.75612 9.05117,0.94028 5.90582,-6.92308 1.90271,8.89873 8.40924,3.47743 -7.87523,4.55944 z" />
    <path
       inkscape:connector-curvature="0"
       style="display:inline;fill:none;stroke:#000000;stroke-width:1.73790979;stroke-linejoin:miter;stroke-miterlimit:4;stroke-dasharray:none;stroke-opacity:1"
       id="path4799"
       d="m 703.25053,312.51321 -6.76987,-6.08085 -8.8472,2.12954 3.69123,-8.31762 -4.75924,-7.75612 9.05117,0.94028 5.90582,-6.92308 1.90271,8.89874 8.40924,3.47742 -7.87523,4.55945 z" />
    <path
       inkscape:connector-curvature="0"
       style="display:inline;fill:none;stroke:#000000;stroke-width:1.73790979;stroke-linejoin:miter;stroke-miterlimit:4;stroke-dasharray:none;stroke-opacity:1"
       id="path4807"
       d="m 715.35899,907.19325 -6.76987,-6.08085 -8.8472,2.12953 3.69123,-8.31761 -4.75924,-7.75612 9.05117,0.94028 5.90582,-6.92308 1.90271,8.89874 8.40924,3.47742 -7.87523,4.55944 z" />
    <path
       inkscape:connector-curvature="0"
       style="display:inline;fill:none;stroke:#000000;stroke-width:1.73790991;stroke-linejoin:miter;stroke-miterlimit:4;stroke-dasharray:none;stroke-opacity:1"
       id="path4819"
       d="m 1608.4652,324.69958 -8.7934,-2.34141 -6.914,5.91649 -0.4904,-9.08669 -7.7635,-4.74726 8.4904,-3.27447 2.1158,-8.85044 5.7378,7.06294 9.0711,-0.72262 -4.9441,7.63955 z" />
    <path
       inkscape:connector-curvature="0"
       style="display:inline;fill:none;stroke:#000000;stroke-width:1.73790979;stroke-linejoin:miter;stroke-miterlimit:4;stroke-dasharray:none;stroke-opacity:1"
       id="path4825"
       d="m 972.77958,81.50984 -6.76987,-6.08085 -8.84719,2.12953 3.69122,-8.31761 -4.75924,-7.75612 9.05117,0.94028 5.90583,-6.92308 1.9027,8.89874 8.40924,3.47742 -7.87523,4.55944 z" />
  </g>
</svg>
